# xmcd CD database file
#
# Track frame offsets:
#	150
#	20441
#	44405
#	64709
#
# Disc length: 1178 seconds
#
# Revision: 0
# Processed by: cddbd v1.5.2PL0 Copyright (c) Steve Scherf et al.
# Submitted via: CDex 1.70beta3
#
DISCID=2d049804
DTITLE=L'Arc～en～Ciel - CHASE
DYEAR=1900
DGENRE=ロック
TTITLE0=CHASE
TTITLE1=My Dear -L'Acoustic version-
TTITLE2=CHASE (hydeless version)
TTITLE3=My Dear -L'Acoustic version- (hydeless version)
EXTD=
EXTT0=
EXTT1=
EXTT2=
EXTT3=
PLAYORDER=
